<?xml version="1.0" encoding="utf-8"?>
<!-- Generator: Adobe Illustrator 19.1.0, SVG Export Plug-In . SVG Version: 6.00 Build 0)  -->
<svg version="1.1" xmlns="http://www.w3.org/2000/svg" x="0px" y="0px" viewBox="0 0 320 240" fill="rgba(127, 127, 127, 0.3)">
<path d="M0,240V135c0,0,6.7-39.6,25-56c11.4-10.4,20.1-13.7,24-13c16.1-16.1,18.4-6.6,47-35c24.9-26.7,29.2-28.6,34-29
	c7.6-1.2,30.5-7.6,48,7c13.2,11,35.2,35.9,30,73c-26.7,26.9-29.3,28.7-34,36c-3.4,5-0.3,12.5,4,17s15.2,24.9,21,38s20,31.6,24,34
	c0,7.3,0,33,0,33H0z"/>
<path d="M232.4,41.5v-19h4.4v6.3h8v-6.3h4.4v19H232.4z M244.7,32.3h-8v5.6h8V32.3z M237.5,57.2V45.4h4.5v8.2h17.8v3.6H237.5z
	 M258.4,34.8v12.4H254V21.5h4.4v9.7h5.3v3.6H258.4z M289.6,41l-8.1-6l-7.8,7.4l-2.8-2.6c0.5-0.5,1.1-1.1,1.8-1.8
	c0.7-0.7,1.4-1.4,2.1-2.1c0.7-0.7,1.4-1.5,2.1-2.2c0.7-0.7,1.2-1.4,1.7-1.9c0.2-0.3,0.4-0.5,0.5-0.7c0.1-0.2,0.2-0.6,0.2-1.1v-7.6
	h4.4v7.7c0,0.6,0,1,0.1,1.2c0.1,0.2,0.3,0.4,0.6,0.7c0.4,0.4,0.9,0.8,1.5,1.4c0.6,0.5,1.2,1.1,1.9,1.7c0.7,0.6,1.4,1.2,2,1.7
	c0.7,0.6,1.3,1.1,1.9,1.6L289.6,41z M290,59c-1.4,0-2.7-0.2-4-0.6c-1.2-0.4-2.3-0.9-3.3-1.6s-1.7-1.5-2.2-2.5s-0.8-2-0.8-3.2
	c0-1.2,0.3-2.3,0.8-3.2s1.3-1.8,2.2-2.5c0.9-0.7,2-1.2,3.3-1.6c1.2-0.4,2.6-0.6,4-0.6c1.4,0,2.7,0.2,3.9,0.6
	c1.2,0.4,2.3,0.9,3.3,1.6c0.9,0.7,1.7,1.5,2.2,2.5s0.8,2,0.8,3.2c0,1.2-0.3,2.3-0.8,3.2s-1.3,1.8-2.2,2.5c-0.9,0.7-2,1.2-3.3,1.6
	C292.7,58.8,291.4,59,290,59z M290,46.8c-0.8,0-1.6,0.1-2.3,0.3c-0.7,0.2-1.3,0.5-1.8,0.9c-0.5,0.4-0.9,0.8-1.2,1.4
	c-0.3,0.5-0.5,1.1-0.5,1.7c0,0.6,0.2,1.2,0.5,1.7c0.3,0.5,0.7,1,1.2,1.4c0.5,0.4,1.1,0.7,1.8,0.9c0.7,0.2,1.5,0.3,2.3,0.3
	c0.8,0,1.6-0.1,2.3-0.3c0.7-0.2,1.3-0.5,1.8-0.9c0.5-0.4,0.9-0.8,1.2-1.4c0.3-0.5,0.4-1.1,0.4-1.7c0-0.6-0.1-1.2-0.4-1.7
	c-0.3-0.5-0.7-1-1.2-1.4c-0.5-0.4-1.1-0.7-1.8-0.9C291.6,46.9,290.8,46.8,290,46.8z M295.9,42.9V31.6h-7.4V28h7.4v-6.4h4.4v21.4
	H295.9z"/>
</svg>
