<?xml version="1.0" encoding="utf-8"?>
<svg version="1.1" xmlns="http://www.w3.org/2000/svg" x="0px" y="0px" viewBox="0 0 320 240" fill="rgba(127, 127, 127, 0.3)">
<path d="M0,240V135c0,0,6.7-39.6,25-56c11.4-10.4,20.1-13.7,24-13c16.1-16.1,18.4-6.6,47-35c24.9-26.7,29.2-28.6,34-29
	c7.6-1.2,30.5-7.6,48,7c13.2,11,35.2,35.9,30,73c-26.7,26.9-29.3,28.7-34,36c-3.4,5-0.3,12.5,4,17s15.2,24.9,21,38s20,31.6,24,34
	c0,7.3,0,33,0,33H0z"/>
<g>
	<path d="M260.8,91.1V68.3h5.2v7.5h9.6v-7.5h5.2v22.8H260.8z M275.6,80.1h-9.6v6.7h9.6V80.1z M267,110V95.8h5.4v9.9h21.4v4.3H267z
		 M292.1,83.1V98h-5.3V67.2h5.3v11.7h6.3v4.3H292.1z"/>
	<path d="M280.2,148.1l-9.7-7.2l-9.4,8.8l-3.4-3.1c0.6-0.6,1.4-1.3,2.2-2.2c0.8-0.8,1.7-1.7,2.5-2.6c0.9-0.9,1.7-1.8,2.5-2.6
		c0.8-0.9,1.5-1.7,2.1-2.3c0.3-0.3,0.5-0.6,0.6-0.9c0.1-0.3,0.2-0.7,0.2-1.3v-9.2h5.3v9.2c0,0.7,0.1,1.2,0.2,1.4
		c0.1,0.2,0.3,0.5,0.7,0.8c0.5,0.4,1.1,1,1.8,1.6c0.7,0.6,1.5,1.3,2.3,2c0.8,0.7,1.6,1.4,2.4,2.1c0.8,0.7,1.6,1.3,2.3,1.9
		L280.2,148.1z M280.7,169.7c-1.7,0-3.3-0.2-4.8-0.7c-1.5-0.4-2.8-1.1-3.9-1.9c-1.1-0.8-2-1.8-2.6-3s-1-2.4-1-3.9
		c0-1.4,0.3-2.7,1-3.9s1.5-2.1,2.6-3c1.1-0.8,2.4-1.5,3.9-1.9c1.5-0.4,3.1-0.7,4.8-0.7c1.7,0,3.2,0.2,4.7,0.7
		c1.5,0.4,2.8,1.1,3.9,1.9c1.1,0.8,2,1.8,2.6,3c0.6,1.2,1,2.4,1,3.9c0,1.4-0.3,2.7-1,3.9c-0.6,1.2-1.5,2.1-2.6,3
		c-1.1,0.8-2.4,1.5-3.9,1.9C283.9,169.5,282.3,169.7,280.7,169.7z M280.7,155.1c-1,0-1.9,0.1-2.8,0.4c-0.8,0.3-1.6,0.6-2.2,1.1
		c-0.6,0.5-1.1,1-1.5,1.7c-0.4,0.6-0.6,1.3-0.6,2.1s0.2,1.4,0.6,2s0.9,1.2,1.5,1.6c0.6,0.5,1.4,0.8,2.2,1.1c0.8,0.3,1.8,0.4,2.8,0.4
		s1.9-0.1,2.8-0.4c0.8-0.3,1.6-0.6,2.2-1.1c0.6-0.5,1.1-1,1.5-1.6c0.4-0.6,0.5-1.3,0.5-2s-0.2-1.4-0.5-2.1c-0.4-0.6-0.8-1.2-1.5-1.7
		c-0.6-0.5-1.4-0.8-2.2-1.1C282.6,155.2,281.7,155.1,280.7,155.1z M287.8,150.4v-13.6h-8.8v-4.4h8.8v-7.7h5.3v25.7H287.8z"/>
</g>
</svg>
